<svg width="1200" height="1200" viewBox="0 0 1200 1200" fill="none" xmlns="http://www.w3.org/2000/svg">
<rect width="1200" height="1200" fill="#FF550E"/>
<path fill-rule="evenodd" clip-rule="evenodd" d="M305.655 402.491C305.657 401.781 305.711 401.083 305.803 400.397C305.803 400.391 305.803 400.385 305.803 400.379C305.776 391.487 312.963 384.256 321.855 384.229L722.152 383.002C726.916 382.987 731.2 385.044 734.158 388.323C734.517 388.721 734.881 389.116 735.278 389.477L887.546 528.028C887.682 528.134 887.818 528.238 887.95 528.347C892.358 531.233 895.266 536.217 895.246 541.879L894.345 797.022C894.339 798.788 894.043 800.485 893.512 802.074C892.111 809.503 885.609 815.139 877.768 815.174L460.792 816.998C455.479 817.021 450.756 814.47 447.806 810.515L310.34 671.334C309.678 670.663 309.089 669.946 308.568 669.198C307.491 667.712 306.663 666.036 306.142 664.229C305.245 662.214 304.746 659.982 304.754 657.634L305.655 402.491ZM768.585 672.895C768.632 675.858 769.89 678.672 772.065 680.684L844.125 747.35C851.058 753.764 862.309 748.87 862.342 739.424L862.951 567.759C862.972 561.75 858.105 556.868 852.096 556.871L777.735 556.906C771.677 556.909 766.794 561.873 766.892 567.931L768.585 672.895ZM756.831 521.471C757.4 522.071 758.077 522.56 758.778 522.997C760.339 523.971 762.071 524.712 763.91 524.711L807.988 524.69C817.901 524.686 822.617 512.486 815.285 505.815L718.845 418.063C716.839 416.237 714.221 415.229 711.509 415.238L681.311 415.331C671.797 415.361 666.926 426.75 673.475 433.651L756.831 521.471ZM770.196 772.72C770.292 778.661 775.149 783.42 781.091 783.394L807.881 783.278C817.729 783.235 822.431 771.151 815.202 764.464L788.004 739.302C780.996 732.818 769.634 737.895 769.788 747.442L770.196 772.72ZM718.471 734.278C725.252 741.532 737.407 736.623 737.247 726.694L736.759 696.464C736.711 693.501 735.453 690.686 733.278 688.674L722.011 678.252C720.003 676.394 717.366 675.363 714.63 675.367L688.42 675.4C678.936 675.412 674.031 686.729 680.507 693.658L718.471 734.278ZM597.015 632.699C597.152 638.596 601.976 643.304 607.875 643.297L617.838 643.285C619.138 643.283 620.417 643.01 621.681 642.705C624.161 642.106 626.752 642.106 629.226 642.697C630.486 642.998 631.763 643.266 633.059 643.264L720.277 643.156C721.036 643.155 721.79 643.061 722.541 642.955C724.163 642.726 725.814 642.743 727.435 643.01C727.914 643.089 728.397 643.145 728.882 643.144C732.74 643.139 735.847 639.977 735.784 636.119L734.679 567.607C734.584 561.681 729.752 556.929 723.826 556.932L606.357 556.989C600.269 556.992 595.374 562.003 595.516 568.09L597.015 632.699ZM600.287 773.54C600.425 779.451 605.269 784.164 611.182 784.138L695.706 783.77C705.174 783.728 710.05 772.428 703.585 765.511L622.668 678.932C620.613 676.734 617.737 675.487 614.727 675.491L609.101 675.498C603.015 675.506 598.126 680.516 598.267 686.6L600.287 773.54ZM582.46 519.726C583.556 520.907 584.96 521.762 586.375 522.532C588.587 523.737 590.941 524.793 593.46 524.792L690.288 524.747C699.816 524.743 704.712 513.339 698.153 506.428L615.116 418.939C613.06 416.772 610.201 415.549 607.213 415.558L510.888 415.854C501.432 415.883 496.536 427.154 502.969 434.085L582.46 519.726ZM548.342 740.145C555.144 747.436 567.354 742.461 567.122 732.491L566.047 686.164C565.91 680.266 561.086 675.558 555.186 675.566L513.093 675.62C503.613 675.632 498.707 686.939 505.173 693.871L548.342 740.145ZM476.1 632.65C476.127 638.628 480.985 643.458 486.964 643.45L553.962 643.364C560.047 643.356 564.936 638.346 564.795 632.263L563.295 567.613C563.158 561.718 558.339 557.012 552.443 557.015L486.648 557.047C480.639 557.05 475.776 561.937 475.804 567.947L476.1 632.65ZM476.747 773.88C476.774 779.872 481.653 784.707 487.644 784.68L520.801 784.534C530.263 784.493 535.141 773.203 528.686 766.283L495.365 730.566C488.63 723.347 476.537 728.144 476.582 738.017L476.747 773.88ZM464.398 524.338C464.579 524.524 464.802 524.662 465.046 524.75C465.232 524.817 465.428 524.854 465.627 524.854L518.392 524.83C527.862 524.825 532.782 513.54 526.339 506.599L445.538 419.546C443.477 417.326 440.582 416.068 437.552 416.077L384.911 416.24C375.333 416.269 370.488 427.789 377.166 434.655L464.398 524.338ZM425.797 742.406C432.629 749.324 444.411 744.455 444.366 734.732L444.145 686.523C444.117 680.545 439.259 675.716 433.281 675.723L385.947 675.781C376.319 675.793 371.475 687.406 378.24 694.255L425.797 742.406ZM443.244 643.505C443.339 643.505 443.432 643.485 443.519 643.448C443.775 643.337 443.946 643.087 443.945 642.808L443.533 553.431C443.52 550.622 442.419 547.929 440.461 545.916L356.257 459.342C349.479 452.374 337.663 457.148 337.629 466.869L337.044 632.738C337.023 638.75 341.895 643.633 347.908 643.626L443.244 643.505Z" fill="#F4F3EF"/>
</svg>
