<svg width="1294" height="189" viewBox="0 0 1294 189" fill="none" xmlns="http://www.w3.org/2000/svg">
<path fill-rule="evenodd" clip-rule="evenodd" d="M0.39164 8.4727C0.392746 8.16407 0.416303 7.86048 0.456093 7.56254C0.456082 7.55994 0.456101 7.55733 0.456093 7.55473C0.44424 3.68887 3.5688 0.545292 7.43461 0.533244L181.463 3.35875e-05C183.526 -0.00629248 185.383 0.881431 186.668 2.29777C186.834 2.48079 187.002 2.66265 187.185 2.82899L253.367 63.0498C253.426 63.0956 253.486 63.1409 253.543 63.1885C255.459 64.4433 256.724 66.61 256.715 69.0713L256.323 179.994C256.321 180.762 256.192 181.5 255.961 182.19C255.352 185.42 252.525 187.871 249.116 187.886L67.837 188.679C65.5275 188.689 63.4739 187.58 62.1915 185.86L2.42875 125.352C2.14065 125.06 1.88464 124.748 1.65825 124.423C1.1901 123.777 0.830189 123.048 0.603559 122.263C0.213694 121.387 -0.00351654 120.416 4.30706e-05 119.396L0.39164 8.4727ZM201.647 125.909C201.669 127.275 202.249 128.571 203.251 129.499L234.017 157.962C237.212 160.918 242.397 158.662 242.412 154.309L242.674 80.607C242.683 77.8378 240.441 75.588 237.671 75.5893L205.915 75.6041C203.123 75.6054 200.873 77.893 200.918 80.6847L201.647 125.909ZM196.539 60.1991C196.787 60.4597 197.081 60.6723 197.386 60.8626C198.064 61.2859 198.818 61.6082 199.617 61.6078L218.049 61.599C222.617 61.5968 224.79 55.975 221.411 52.9008L180.106 15.3166C179.182 14.4754 177.976 14.011 176.726 14.0148L164.363 14.0531C159.979 14.0666 157.734 19.3151 160.752 22.4952L196.539 60.1991ZM202.345 169.149C202.389 171.887 204.628 174.08 207.366 174.068L218.015 174.022C222.553 174.002 224.72 168.434 221.389 165.352L210.578 155.35C207.348 152.362 202.112 154.702 202.183 159.101L202.345 169.149ZM179.361 152.18C182.486 155.523 188.087 153.26 188.013 148.685L187.815 136.398C187.793 135.032 187.213 133.735 186.211 132.808L181.483 128.435C180.557 127.578 179.342 127.103 178.081 127.105L167.449 127.118C163.078 127.124 160.818 132.339 163.802 135.533L179.361 152.18ZM127.054 108.278C127.117 110.996 129.34 113.165 132.058 113.162L136.061 113.157C136.66 113.157 137.25 113.03 137.833 112.894C138.88 112.649 139.97 112.649 141.014 112.89C141.595 113.025 142.184 113.149 142.781 113.148L180.618 113.101C180.967 113.101 181.315 113.057 181.661 113.01C182.357 112.915 183.065 112.923 183.76 113.038C183.968 113.072 184.178 113.097 184.388 113.096C186.066 113.094 187.416 111.719 187.389 110.042L186.913 80.5351C186.869 77.8045 184.643 75.6144 181.912 75.6157L131.411 75.6401C128.605 75.6415 126.35 77.951 126.415 80.7562L127.054 108.278ZM128.476 169.508C128.539 172.232 130.772 174.404 133.496 174.392L169.317 174.236C173.68 174.216 175.928 169.009 172.948 165.821L138.296 128.745C137.349 127.732 136.024 127.157 134.637 127.159L132.603 127.162C129.799 127.165 127.546 129.474 127.611 132.278L128.476 169.508ZM120.732 59.4405C121.208 59.9538 121.819 60.3255 122.434 60.6604C123.396 61.1843 124.419 61.6433 125.514 61.6428L166.951 61.6236C171.342 61.6216 173.598 56.3663 170.576 53.1815L135.013 15.7121C134.066 14.7135 132.748 14.1499 131.371 14.1541L90.2626 14.2804C85.9046 14.2938 83.6485 19.4877 86.6132 22.6819L120.732 59.4405ZM105.392 154.723C108.527 158.083 114.153 155.791 114.047 151.196L113.603 132.076C113.54 129.358 111.316 127.188 108.598 127.192L91.2247 127.214C86.8564 127.219 84.5951 132.431 87.575 135.625L105.392 154.723ZM74.4909 108.252C74.5035 111.007 76.7423 113.233 79.4973 113.229L108.053 113.192C110.858 113.189 113.111 110.88 113.046 108.076L112.406 80.5358C112.343 77.8194 110.122 75.6505 107.405 75.6518L79.3623 75.6656C76.5929 75.6669 74.3521 77.9191 74.3648 80.6884L74.4909 108.252ZM74.772 169.65C74.7847 172.411 77.033 174.64 79.794 174.627L93.2785 174.568C97.6393 174.549 99.8873 169.346 96.9125 166.157L83.3611 151.631C80.2574 148.304 74.6843 150.515 74.7051 155.065L74.772 169.65ZM69.405 61.4456C69.4835 61.5263 69.5806 61.5864 69.6865 61.6246C69.7676 61.6538 69.8529 61.6699 69.9391 61.6699L92.23 61.6596C96.5942 61.6576 98.8613 56.4568 95.8923 53.2581L61.2898 15.9783C60.3401 14.9551 59.0058 14.3755 57.6097 14.3798L35.5152 14.448C31.1014 14.4617 28.8689 19.7702 31.9464 22.9342L69.405 61.4456ZM52.1354 155.756C55.284 158.944 60.7134 156.7 60.6928 152.22L60.601 132.237C60.5884 129.482 58.3498 127.257 55.595 127.26L35.9745 127.284C31.5379 127.29 29.3056 132.641 32.4232 135.798L52.1354 155.756ZM60.2083 113.253C60.2494 113.253 60.29 113.244 60.3277 113.228C60.4393 113.18 60.5133 113.072 60.5128 112.95L60.3345 74.2076C60.3286 72.9135 59.8211 71.6721 58.9188 70.7445L22.8741 33.6857C19.7508 30.4745 14.3057 32.6747 14.2899 37.1542L14.0392 108.288C14.0295 111.058 16.2748 113.309 19.0455 113.305L60.2083 113.253Z" fill="#FF550E"/>
<path d="M391.224 171.902C381.047 171.902 372.313 170.252 365.024 166.951C357.735 163.513 352.096 158.699 348.107 152.51C344.119 146.184 342.125 138.688 342.125 130.023H364.199C364.199 136.9 366.606 142.333 371.419 146.321C376.233 150.172 382.903 152.097 391.43 152.097C399.407 152.097 405.665 150.172 410.204 146.321C414.742 142.47 417.012 137.175 417.012 130.436C417.012 124.797 415.43 119.915 412.267 115.789C409.241 111.663 404.84 108.843 399.064 107.33L380.084 101.76C369.081 98.5968 360.554 93.233 354.503 85.6686C348.589 77.9667 345.632 68.8207 345.632 58.2306C345.632 49.9786 347.488 42.7581 351.202 36.569C354.915 30.38 360.21 25.5663 367.087 22.128C373.964 18.6896 382.078 16.9704 391.43 16.9704C405.184 16.9704 416.187 20.6839 424.439 28.1107C432.828 35.5375 437.092 45.5087 437.229 58.0243H414.949C414.949 51.4227 412.817 46.2652 408.553 42.5517C404.427 38.7008 398.582 36.7753 391.018 36.7753C383.729 36.7753 378.021 38.5633 373.895 42.1391C369.769 45.5775 367.706 50.4599 367.706 56.7865C367.706 62.4254 369.219 67.3078 372.244 71.4339C375.408 75.5599 379.878 78.4481 385.654 80.0985L404.84 85.8749C415.843 88.9007 424.301 94.2645 430.215 101.966C436.129 109.668 439.086 118.883 439.086 129.611C439.086 138 437.092 145.427 433.103 151.891C429.115 158.218 423.545 163.169 416.393 166.745C409.241 170.183 400.851 171.902 391.224 171.902ZM477.79 169.839V88.5568H445.607V68.3394H477.79V49.9786C477.79 40.4887 480.816 32.9931 486.867 27.4918C492.919 21.9904 501.171 19.2398 511.623 19.2398H544.838V39.0446H512.036C508.185 39.0446 505.159 40.0074 502.959 41.9329C500.896 43.8583 499.864 46.609 499.864 50.1849V68.3394H544.838V88.5568H499.864V169.839H477.79ZM592.825 171.902C581.41 171.902 572.264 168.051 565.387 160.35C558.51 152.648 555.072 142.264 555.072 129.198V97.2215C555.072 84.0182 558.51 73.5656 565.387 65.8637C572.264 58.1618 581.41 54.3109 592.825 54.3109C602.177 54.3109 609.604 56.924 615.106 62.1503C620.607 67.2391 623.358 74.2533 623.358 83.193L618.613 78.0355H623.77L623.151 51.629V19.2398H645.432V169.839H623.358V148.178H618.613L623.358 143.02C623.358 151.96 620.607 159.043 615.106 164.269C609.604 169.358 602.177 171.902 592.825 171.902ZM600.458 152.51C607.472 152.51 612.974 150.378 616.962 146.115C621.088 141.714 623.151 135.662 623.151 127.96V98.253C623.151 90.5511 621.088 84.5683 616.962 80.3048C612.974 75.9037 607.472 73.7032 600.458 73.7032C593.169 73.7032 587.461 75.8349 583.335 80.0985C579.209 84.2245 577.146 90.276 577.146 98.253V127.96C577.146 135.937 579.209 142.058 583.335 146.321C587.461 150.447 593.169 152.51 600.458 152.51ZM706.623 171.902C696.445 171.902 687.712 170.252 680.422 166.951C673.133 163.513 667.494 158.699 663.506 152.51C659.517 146.184 657.523 138.688 657.523 130.023H679.597C679.597 136.9 682.004 142.333 686.818 146.321C691.631 150.172 698.302 152.097 706.829 152.097C714.806 152.097 721.064 150.172 725.602 146.321C730.141 142.47 732.41 137.175 732.41 130.436C732.41 124.797 730.829 119.915 727.665 115.789C724.64 111.663 720.238 108.843 714.462 107.33L695.482 101.76C684.48 98.5968 675.953 93.233 669.901 85.6686C663.987 77.9667 661.03 68.8207 661.03 58.2306C661.03 49.9786 662.887 42.7581 666.6 36.569C670.314 30.38 675.609 25.5663 682.485 22.128C689.362 18.6896 697.477 16.9704 706.829 16.9704C720.582 16.9704 731.585 20.6839 739.837 28.1107C748.227 35.5375 752.49 45.5087 752.628 58.0243H730.347C730.347 51.4227 728.215 46.2652 723.952 42.5517C719.826 38.7008 713.981 36.7753 706.416 36.7753C699.127 36.7753 693.419 38.5633 689.293 42.1391C685.167 45.5775 683.104 50.4599 683.104 56.7865C683.104 62.4254 684.617 67.3078 687.643 71.4339C690.806 75.5599 695.276 78.4481 701.052 80.0985L720.238 85.8749C731.241 88.9007 739.699 94.2645 745.613 101.966C751.527 109.668 754.484 118.883 754.484 129.611C754.484 138 752.49 145.427 748.502 151.891C744.513 158.218 738.943 163.169 731.791 166.745C724.64 170.183 716.25 171.902 706.623 171.902ZM823.515 169.839C813.2 169.839 805.154 167.02 799.377 161.381C793.601 155.742 790.713 147.903 790.713 137.863V76.5914H759.355V56.3739H790.713V24.3973H812.993V56.3739H857.348V76.5914H812.993V137.863C812.993 145.702 816.775 149.622 824.34 149.622H855.285V169.839H823.515ZM904.923 171.902C893.095 171.902 883.743 168.877 876.866 162.825C870.127 156.636 866.757 148.247 866.757 137.656C866.757 126.929 870.333 118.539 877.485 112.488C884.774 106.299 894.745 103.204 907.398 103.204H938.962V92.6828C938.962 86.4938 937.037 81.6801 933.186 78.2418C929.335 74.8034 923.902 73.0843 916.888 73.0843C910.699 73.0843 905.542 74.4596 901.416 77.2103C897.29 79.8234 894.883 83.3305 894.195 87.7316H872.327C873.565 77.5541 878.241 69.4396 886.356 63.3881C894.608 57.3366 904.992 54.3109 917.507 54.3109C930.985 54.3109 941.644 57.7492 949.484 64.6259C957.323 71.3651 961.243 80.5799 961.243 92.2702V169.839H939.581V149.003H935.868L939.581 144.877C939.581 153.129 936.418 159.731 930.091 164.682C923.765 169.496 915.375 171.902 904.923 171.902ZM911.524 154.779C919.501 154.779 926.034 152.785 931.123 148.797C936.349 144.671 938.962 139.444 938.962 133.118V118.264H907.811C902.035 118.264 897.427 119.846 893.989 123.009C890.688 126.172 889.038 130.505 889.038 136.006C889.038 141.782 891.032 146.39 895.02 149.828C899.009 153.129 904.51 154.779 911.524 154.779ZM1022.23 171.902C1012.88 171.902 1004.62 170.183 997.471 166.745C990.457 163.169 985.024 158.08 981.173 151.479C977.46 144.739 975.603 136.9 975.603 127.96V98.253C975.603 89.1757 977.46 81.3363 981.173 74.7347C985.024 68.1331 990.457 63.1131 997.471 59.6747C1004.62 56.0988 1012.88 54.3109 1022.23 54.3109C1035.84 54.3109 1046.78 57.8868 1055.03 65.0385C1063.28 72.1903 1067.61 81.9552 1068.03 94.3333H1045.75C1045.33 87.8692 1043.06 82.8492 1038.94 79.2733C1034.81 75.6974 1029.24 73.9095 1022.23 73.9095C1014.66 73.9095 1008.68 76.0412 1004.28 80.3048C999.878 84.4308 997.678 90.3448 997.678 98.0467V127.96C997.678 135.662 999.878 141.645 1004.28 145.908C1008.68 150.172 1014.66 152.304 1022.23 152.304C1029.24 152.304 1034.81 150.516 1038.94 146.94C1043.06 143.364 1045.33 138.344 1045.75 131.88H1068.03C1067.61 144.258 1063.28 154.023 1055.03 161.175C1046.78 168.326 1035.84 171.902 1022.23 171.902ZM1082.59 169.839V19.2398H1104.87V101.966H1124.88L1155 56.3739H1180.17L1144.07 110.837L1180.79 169.839H1155.21L1124.88 121.152H1104.87V169.839H1082.59ZM1227.75 171.696C1219.63 171.696 1212.48 170.389 1206.29 167.776C1200.24 165.163 1195.43 161.587 1191.85 157.049C1188.41 152.373 1186.42 146.871 1185.87 140.545H1208.15C1208.7 144.258 1210.69 147.284 1214.13 149.622C1217.57 151.822 1222.11 152.923 1227.75 152.923H1236.62C1243.36 152.923 1248.45 151.547 1251.89 148.797C1255.32 146.046 1257.04 142.401 1257.04 137.863C1257.04 133.462 1255.46 130.023 1252.3 127.548C1249.27 124.935 1244.73 123.215 1238.68 122.39L1224.03 120.121C1211.93 118.195 1202.99 114.757 1197.22 109.806C1191.58 104.717 1188.76 97.2215 1188.76 87.319C1188.76 76.8665 1192.13 68.8207 1198.87 63.1818C1205.74 57.4054 1215.85 54.5172 1229.19 54.5172H1237.03C1248.86 54.5172 1258.28 57.2679 1265.29 62.7692C1272.45 68.133 1276.5 75.3536 1277.47 84.4308H1255.19C1254.64 81.13 1252.78 78.4481 1249.62 76.3851C1246.59 74.3221 1242.4 73.2906 1237.03 73.2906H1229.19C1222.73 73.2906 1217.98 74.5284 1214.96 77.004C1212.07 79.3421 1210.63 82.8492 1210.63 87.5253C1210.63 91.6513 1211.93 94.7459 1214.54 96.8089C1217.16 98.8719 1221.22 100.316 1226.72 101.141L1241.78 103.617C1254.57 105.405 1263.92 108.981 1269.83 114.344C1275.88 119.571 1278.91 127.204 1278.91 137.244C1278.91 148.109 1275.33 156.567 1268.18 162.619C1261.17 168.67 1250.65 171.696 1236.62 171.696H1227.75Z" fill="#FF550E"/>
</svg>
